<svg height="512pt" viewBox="-48 0 512 512" width="512pt" xmlns="http://www.w3.org/2000/svg"><path d="m353.097656 23.402344c-26.097656 39-69 61.199218-114.296875 61.199218-6 0-12-.300781-18.300781-1.199218-6.601562-.902344-13.5-2.402344-20.402344-4.203125l8.398438-28.800781c3.902344 1.199218 8.101562 2.101562 12.003906 2.703124 41.699219 7.199219 83.699219-10.800781 107.398438-46.5zm0 0" fill="#c9e36a"/><path d="m353.097656 23.402344c-26.097656 39-69 61.199218-114.296875 61.199218-6 0-12-.300781-18.300781-1.199218v-30.300782c41.699219 7.199219 83.699219-10.800781 107.398438-46.5zm0 0" fill="#90c225"/><path d="m235.5 121.199219v43.800781h-30v-43.800781c0-50.398438-40.800781-91.199219-91.199219-91.199219-24.300781 0-47.101562 9.601562-64.199219 26.699219l-29.101562 28.800781-21-21 28.800781-29.101562c22.796875-22.800782 53.398438-35.398438 85.5-35.398438 45.597657 0 85.5 25.5 106.199219 62.699219 9.601562 17.398437 15 37.203125 15 58.5zm0 0" fill="#a9da40"/><path d="m235.5 165h-15v-102.300781c9.601562 17.402343 15 37.203125 15 58.5zm0 0" fill="#90c225"/><path d="m85.5 240c-33.089844 0-60-26.910156-60-60s26.910156-60 60-60 60 26.910156 60 60-26.910156 60-60 60zm0 0" fill="#b03244"/><path d="m325.5 180c0 33-27 60-60 60-18 0-33.898438-8.101562-45-20.699219-11.101562 12.597657-27 20.699219-45 20.699219-33 0-60-27-60-60s27-60 60-60c18 0 33.898438 8.097656 45 20.699219 11.101562-12.601563 27-20.699219 45-20.699219 33 0 60 27 60 60zm0 0" fill="#c83c50"/><path d="m355.5 240c-33.089844 0-60-26.910156-60-60s26.910156-60 60-60 60 26.910156 60 60-26.910156 60-60 60zm0 0" fill="#962a3a"/><path d="m265.5 240c-18 0-33.898438-8.101562-45-20.699219v-78.601562c11.101562-12.601563 27-20.699219 45-20.699219 33 0 60 27 60 60s-27 60-60 60zm0 0" fill="#b03244"/><path d="m310.5 330c-33.089844 0-60-26.910156-60-60s26.910156-60 60-60 60 26.910156 60 60-26.910156 60-60 60zm0 0" fill="#962a3a"/><path d="m130.5 330c-33.089844 0-60-26.910156-60-60s26.910156-60 60-60 60 26.910156 60 60-26.910156 60-60 60zm0 0" fill="#b03244"/><path d="m220.5 210c-33 0-60 27-60 60s27 60 60 60 60-27 60-60-27-60-60-60zm0 0" fill="#cf5668"/><path d="m220.5 330v-120c33 0 60 27 60 60s-27 60-60 60zm0 0" fill="#c83c50"/><path d="m325.5 360c0 33-27 60-60 60-18 0-33.898438-8.101562-45-20.699219-11.101562 12.597657-27 20.699219-45 20.699219-33 0-60-27-60-60s27-60 60-60c18 0 33.898438 8.097656 45 20.699219 11.101562-12.601563 27-20.699219 45-20.699219 33 0 60 27 60 60zm0 0" fill="#c83c50"/><path d="m325.5 360c0 33-27 60-60 60-18 0-33.898438-8.101562-45-20.699219v-78.601562c11.101562-12.601563 27-20.699219 45-20.699219 33 0 60 27 60 60zm0 0" fill="#b03244"/><path d="m220.5 390c-33 0-60 27-60 60s27 62 60 62 60-29 60-62-27-60-60-60zm0 0" fill="#cf5668"/><path d="m280.5 450c0 33-27 62-60 62v-122c33 0 60 27 60 60zm0 0" fill="#c83c50"/></svg>