<svg height="512pt" viewBox="-9 0 511 512" width="512pt" xmlns="http://www.w3.org/2000/svg"><path d="m240.5 60c-22.820312-18.40625-51.847656-60-112.28125-60h-7.71875l-120 150v60h127.71875c60.4375 0 89.472656-41.601562 112.28125-60l30-30zm0 0" fill="#cf5668"/><path d="m390.5 375h30v122h-30zm0 0" fill="#c6e2e7"/><path d="m405.5 375h15v122h-15zm0 0" fill="#a8d3d8"/><path d="m486.800781 240-81.300781 30-81.300781-30 8.101562-60h58.199219l15 15 15-15h58.199219zm0 0" fill="#deecf1"/><path d="m486.800781 240-81.300781 30v-75l15-15h58.199219zm0 0" fill="#c6e2e7"/><path d="m330.5 482h150v30h-150zm0 0" fill="#deecf1"/><path d="m420.5 165v15l-15 30-15-30v-15c0-24.902344-20.097656-45-45-45v-30c24.601562 0 46.5 12 60 30.300781 9.601562 12.296875 15 27.898438 15 44.699219zm0 0" fill="#cf5668"/><path d="m390.5 180h30v75h-30zm0 0" fill="#c83c50"/><path d="m240.5 60h120v90h-120zm0 0" fill="#5a5a5a"/><path d="m.5 0h120v150h-120zm0 0" fill="#deecf1"/><path d="m420.5 180-15 30v-89.699219c9.601562 12.296875 15 27.898438 15 44.699219zm0 0" fill="#c83c50"/><path d="m405.5 482h75v30h-75zm0 0" fill="#c6e2e7"/><path d="m405.5 180h15v75h-15zm0 0" fill="#b03244"/><path d="m405.5 390c-56.101562 0-98.101562-51.300781-87-106.199219l5.699219-43.800781h162.601562l6 44.699219c10.5 53.101562-30.601562 105.300781-87.300781 105.300781zm0 0" fill="#cf5668"/><path d="m405.5 390v-150h81.300781l6 44.699219c10.5 53.101562-30.601562 105.300781-87.300781 105.300781zm0 0" fill="#c83c50"/></svg>