<?xml version="1.0" encoding="iso-8859-1"?>
<!-- Generator: Adobe Illustrator 19.0.0, SVG Export Plug-In . SVG Version: 6.00 Build 0)  -->
<svg xmlns="http://www.w3.org/2000/svg" xmlns:xlink="http://www.w3.org/1999/xlink" version="1.1" id="Capa_1" x="0px" y="0px" viewBox="0 0 470 470" style="enable-background:new 0 0 470 470;" xml:space="preserve" width="512" height="512">
<g>
	<polygon style="fill:#FEFDCA;" points="121,192.5 127.21,252.5 68.61,282.5 95.5,192.5  "/>
	<polygon style="fill:#FEFDCA;" points="451,192.5 457.21,252.5 398.61,282.5 425.5,192.5  "/>
	<path style="fill:#EF431D;" d="M459.67,276.22l-2.46-23.72h-28.6l-28.61,90c33.14,0,60-26.86,60-60   C460,280.38,459.89,278.28,459.67,276.22z"/>
	<path style="fill:#EF431D;" d="M129.67,276.22l-2.46-23.72h-28.6L70,342.5c33.14,0,60-26.86,60-60   C130,280.38,129.89,278.28,129.67,276.22z"/>
	<polygon style="fill:#FD7555;" points="235,7.5 265,7.5 265,37.5 225,57.5  "/>
	<polygon style="fill:#FE9F88;" points="235,7.5 235,57.5 205,37.5 205,7.5  "/>
	<polygon style="fill:#EF431D;" points="235,37.5 265,37.5 265,115 215,135  "/>
	<polygon style="fill:#FD7555;" points="235,37.5 235,135 205,115 205,37.5  "/>
	<path style="fill:#47631C;" d="M310,222.5c0-30.7-18.45-57.08-44.86-68.68L262,462.5h18c16.5,0,30-13.5,30-30v-90l-15.714-60   L310,222.5z"/>
	<path style="fill:#668A30;" d="M280,209.5c0-22.11-5.74-41.96-14.86-55.68c-0.05-0.02-0.09-0.04-0.14-0.06V115h-60v38.76   c-26.48,11.57-45,37.99-45,68.74l39.789,60L160,342.5v90c0,16.5,13.5,30,30,30h72c9.9,0,18-13.5,18-30V209.5z"/>
	<polygon style="fill:#FEC8BB;" points="310,222.5 310,342.5 280,342.5 250,282.5 280,222.5  "/>
	<rect x="160" y="222.5" style="fill:#FEFDCA;" width="120" height="120"/>
	<polygon style="fill:#FFFFFF;" points="425.5,192.5 428.61,252.5 385.7,272.5 342.79,252.5 349,192.5  "/>
	<path style="fill:#FD7555;" d="M429.84,276.22c0.1,2.06,0.16,4.16,0.16,6.28c0,33.14-13.43,60-30,60c-33.14,0-60-26.86-60-60   c0-2.12,0.11-4.22,0.33-6.28l2.46-23.72h85.82L429.84,276.22z"/>
	<path style="fill:#FEFDCA;" d="M400,442.5c-25.5,0-25.5,20-51,20h102C425.5,462.5,425.5,442.5,400,442.5z"/>
	<polygon style="fill:#FFFFFF;" points="95.5,192.5 98.61,252.5 55.7,272.5 12.79,252.5 19,192.5  "/>
	<path style="fill:#FD7555;" d="M99.84,276.22c0.1,2.06,0.16,4.16,0.16,6.28c0,33.14-13.43,60-30,60c-33.14,0-60-26.86-60-60   c0-2.12,0.11-4.22,0.33-6.28l2.46-23.72h85.82L99.84,276.22z"/>
	<path style="fill:#FEFDCA;" d="M70,442.5c-25.5,0-25.5,20-51,20h102C95.5,462.5,95.5,442.5,70,442.5z"/>
	<path d="M272.5,149.014V44.564c2.911-1.031,5-3.8,5-7.064s-2.089-6.033-5-7.064V7.5c0-4.142-3.357-7.5-7.5-7.5h-60   c-4.143,0-7.5,3.358-7.5,7.5v22.936c-2.911,1.031-5,3.8-5,7.064s2.089,6.033,5,7.064v104.45c-27.494,14.036-45,42.359-45,73.486   v120c0,4.142,3.357,7.5,7.5,7.5h142.5v82.5c0,12.407-10.094,22.5-22.5,22.5h-90c-12.406,0-22.5-10.093-22.5-22.5v-60   c0-4.142-3.357-7.5-7.5-7.5s-7.5,3.358-7.5,7.5v60c0,20.678,16.822,37.5,37.5,37.5h90c20.678,0,37.5-16.822,37.5-37.5v-210   C317.5,191.373,299.994,163.049,272.5,149.014z M212.5,45h45v62.5h-45V45z M257.5,15v15h-45V15H257.5z M208.004,160.631   c2.73-1.194,4.496-3.892,4.496-6.873V122.5h45v31.258c0,2.981,1.766,5.679,4.496,6.873c22.289,9.741,37.433,30.586,40.087,54.369   H167.917C170.571,191.217,185.715,170.372,208.004,160.631z M167.5,335V230h135v105H167.5z"/>
	<path d="M451,455c-10.159,0-14.887-3.708-20.871-8.401c-5.422-4.252-11.944-9.352-22.629-11.028v-85.998   c33.702-3.744,60-32.39,60-67.073c0-2.346-0.123-4.72-0.366-7.053l-2.455-23.692c-0.005-0.046-6.219-60.028-6.219-60.028   c-0.396-3.822-3.617-6.727-7.46-6.727H349c-3.843,0-7.064,2.905-7.46,6.727l-8.674,83.72c-0.243,2.345-0.366,4.718-0.366,7.053   c0,34.684,26.298,63.329,60,67.073v85.998c-10.685,1.676-17.207,6.776-22.629,11.028C363.887,451.292,359.159,455,349,455   c-4.143,0-7.5,3.358-7.5,7.5s3.357,7.5,7.5,7.5h102c4.143,0,7.5-3.358,7.5-7.5S455.143,455,451,455z M347.5,282.5   c0-1.821,0.097-3.674,0.286-5.507L355.763,200h88.475l4.662,45h-76.115c-4.143,0-7.5,3.358-7.5,7.5s3.357,7.5,7.5,7.5h77.669   l1.761,16.996c0.189,1.823,0.286,3.675,0.286,5.504c0,28.949-23.552,52.5-52.5,52.5S347.5,311.449,347.5,282.5z M383.642,455   c4.284-2.964,8.83-5,16.358-5s12.074,2.036,16.358,5H383.642z"/>
	<path d="M137.5,282.5c0-2.335-0.123-4.708-0.366-7.053l-2.455-23.692c-0.005-0.046-6.219-60.028-6.219-60.028   c-0.396-3.822-3.617-6.727-7.46-6.727H19c-3.843,0-7.064,2.905-7.46,6.727l-8.674,83.716C2.623,277.78,2.5,280.154,2.5,282.5   c0,34.684,26.298,63.329,60,67.073v85.998c-10.685,1.676-17.207,6.776-22.629,11.028C33.887,451.292,29.159,455,19,455   c-4.143,0-7.5,3.358-7.5,7.5s3.357,7.5,7.5,7.5h102c4.143,0,7.5-3.358,7.5-7.5s-3.357-7.5-7.5-7.5   c-10.159,0-14.887-3.708-20.871-8.401c-5.422-4.252-11.944-9.352-22.629-11.028v-85.998C111.202,345.829,137.5,317.184,137.5,282.5   z M17.5,282.5c0-1.829,0.097-3.681,0.286-5.507L25.763,200h88.475l4.662,45H42.784c-4.143,0-7.5,3.358-7.5,7.5s3.357,7.5,7.5,7.5   h77.669l1.76,16.993c0.189,1.833,0.286,3.687,0.286,5.507c0,28.949-23.552,52.5-52.5,52.5S17.5,311.449,17.5,282.5z M53.642,455   c4.284-2.964,8.83-5,16.358-5s12.074,2.036,16.358,5H53.642z"/>
</g>















</svg>
