<svg height="512pt" viewBox="-16 0 512 512" width="512pt" xmlns="http://www.w3.org/2000/svg"><path d="m165 91h30v90h-30zm0 0" fill="#c6e2e7"/><path d="m180 91h15v90h-15zm0 0" fill="#a8d3d8"/><path d="m240 0v61c0 33-27 60-60 60s-60-27-60-60v-61zm0 0" fill="#c83c50"/><path d="m240 0v61c0 33-27 60-60 60v-121zm0 0" fill="#b03244"/><path d="m285 91h30v90h-30zm0 0" fill="#c6e2e7"/><path d="m300 91h15v90h-15zm0 0" fill="#a8d3d8"/><path d="m360 0v61c0 33-27 60-60 60s-60-27-60-60v-61zm0 0" fill="#c83c50"/><path d="m360 0v61c0 33-27 60-60 60v-121zm0 0" fill="#b03244"/><path d="m105 241h30v90h-30zm0 0" fill="#c6e2e7"/><path d="m120 241h15v90h-15zm0 0" fill="#a8d3d8"/><path d="m180 151v60c0 33-27 60-60 60s-60-27-60-60v-60zm0 0" fill="#c83c50"/><path d="m180 151v60c0 33-27 60-60 60v-120zm0 0" fill="#b03244"/><path d="m225 241h30v90h-30zm0 0" fill="#c6e2e7"/><path d="m240 241h15v90h-15zm0 0" fill="#a8d3d8"/><path d="m300 151v60c0 33-27 60-60 60s-60-27-60-60v-60zm0 0" fill="#c83c50"/><path d="m300 151v60c0 33-27 60-60 60v-120zm0 0" fill="#b03244"/><path d="m345 241h30v90h-30zm0 0" fill="#c6e2e7"/><path d="m360 241h15v90h-15zm0 0" fill="#a8d3d8"/><path d="m420 151v60c0 33-27 60-60 60s-60-27-60-60v-60zm0 0" fill="#c83c50"/><path d="m420 151v60c0 33-27 60-60 60v-120zm0 0" fill="#b03244"/><path d="m45 391h30v106h-30zm0 0" fill="#c6e2e7"/><path d="m60 391h15v106h-15zm0 0" fill="#a8d3d8"/><path d="m15 482h90v30h-90zm0 0" fill="#deecf1"/><path d="m120 301v60c0 33-27 60-60 60s-60-27-60-60v-60zm0 0" fill="#c83c50"/><path d="m120 301v60c0 33-27 60-60 60v-120zm0 0" fill="#b03244"/><path d="m60 482h45v30h-45zm0 0" fill="#c6e2e7"/><path d="m165 391h30v106h-30zm0 0" fill="#c6e2e7"/><path d="m180 391h15v106h-15zm0 0" fill="#a8d3d8"/><path d="m135 482h90v30h-90zm0 0" fill="#deecf1"/><path d="m240 301v60c0 33-27 60-60 60s-60-27-60-60v-60zm0 0" fill="#c83c50"/><path d="m240 301v60c0 33-27 60-60 60v-120zm0 0" fill="#b03244"/><path d="m180 482h45v30h-45zm0 0" fill="#c6e2e7"/><path d="m285 391h30v106h-30zm0 0" fill="#c6e2e7"/><path d="m300 391h15v106h-15zm0 0" fill="#a8d3d8"/><path d="m255 482h90v30h-90zm0 0" fill="#deecf1"/><path d="m360 301v60c0 33-27 60-60 60s-60-27-60-60v-60zm0 0" fill="#c83c50"/><path d="m360 301v60c0 33-27 60-60 60v-120zm0 0" fill="#b03244"/><path d="m300 482h45v30h-45zm0 0" fill="#c6e2e7"/><path d="m405 391h30v106h-30zm0 0" fill="#c6e2e7"/><path d="m420 391h15v106h-15zm0 0" fill="#a8d3d8"/><path d="m375 482h90v30h-90zm0 0" fill="#deecf1"/><path d="m480 301v60c0 33-27 60-60 60s-60-27-60-60v-60zm0 0" fill="#c83c50"/><path d="m480 301v60c0 33-27 60-60 60v-120zm0 0" fill="#b03244"/><path d="m420 482h45v30h-45zm0 0" fill="#c6e2e7"/></svg>